Format/Info : Audio Video Interleave
File size : 1.94 GiB
Duration : 1h 41mn
Overall bit rate : 2 729 Kbps
Writing library : VirtualDub build 32839/release

Video
ID : 0
Format : MPEG-4 Visual
Format profile : Advanced Simple@L5
Format settings, BVOP : 2
Format settings, QPel : No
Format settings, GMC : No warppoints
Format settings, Matrix : Default (H.263)
Muxing mode : Packed bitstream
Codec ID : XVID
Codec ID/Hint : XviD
Duration : 1h 41mn
Bit rate : 2 591 Kbps
Width : 1 280 pixels
Height : 544 pixels
Display aspect ratio : 2.35:1
Frame rate : 23.976 fps
Color space : YUV
Chroma subsampling : 4:2:0
Bit depth : 8 bits
Scan type : Progressive
Compression mode : Lossy
Bits/(Pixel*Frame) : 0.155
Stream size : 1.84 GiB (95%)
Writing library : XviD 63

Audio
ID : 1
Format : MPEG Audio
Format version : Version 1
Format profile : Layer 3
Codec ID : 55
Codec ID/Hint : MP3
Duration : 1h 41mn
Bit rate mode : Constant
Bit rate : 128 Kbps
Channel(s) : 2 channels
Sampling rate : 44.1 KHz
Compression mode : Lossy
Stream size : 93.3 MiB (5%)
Alignment : Split accross interleaves
Interleave, duration : 42 ms (1.00 video frame)
Interleave, preload duration : 500 ms



 
http://www.imdb.com/title/tt1650062/




89524873606771859129.png


Users: 8.1/10 (8,827 votes) 209 reviews | Critics: 40 reviews Metascore: 72/100 (based on 40 reviews from Metacritic.com)

After witnessing a mysterious train crash, a group of friends in the summer of 1979 begin noticing strange happenings going around in their small town, and begin to investigate into the creepy phenomenon.
Director:
J.J. Abrams
Writer:
J.J. Abrams
Stars:
Elle Fanning, Amanda Michalka and Kyle Chandler



95521316153253938506.png




vlcsnap2011061506h37m40.png

vlcsnap2011061506h34m56.png

vlcsnap2011061506h35m25.png

vlcsnap2011061506h36m52.png

vlcsnap2011061506h40m09.png

vlcsnap2011061506h36m18.png




Source Used

IMAGiNE 720P ..........Thanks


1st ever go at a 720p TS but really the hard parts already done by them guys (you know who ) but i decided to have a go and put my throw of it in the hat.

Tried different filters compared to the regular release i did .Included 2 samples one dark scene one light ...

Rgb colours slightly changed ,slight smoother ,output leveles changed and slight lowering of saturation

Enjoy !


Greetz to IMAGiNE,Flawl3ss,DiLLoN,BDK,NOiR,TOXiC,THC,Ez,Rx,Boobyblue,TaRiQ786,LKRG,EP1C
